<?xml version="1.0" standalone="no"?>
<!DOCTYPE svg PUBLIC "-//W3C//DTD SVG 1.1//EN" "http://www.w3.org/Graphics/SVG/1.1/DTD/svg11.dtd">
<!--Generator: Xara Designer (www.xara.com), SVG filter version: 6.6.0.1-->
<svg fill="none" fill-rule="evenodd" stroke="black" stroke-width="0.501" stroke-linejoin="bevel" stroke-miterlimit="10" font-family="Times New Roman" font-size="16" style="font-variant-ligatures:none" xmlns:xlink="http://www.w3.org/1999/xlink" xmlns="http://www.w3.org/2000/svg" version="1.1" overflow="visible" width="428.554pt" height="88.747pt" viewBox="83.787 -172.352 428.554 88.747">
 <defs>
	</defs>
 <g id="Layer 1" transform="scale(1 -1)">
  <g id="Group" stroke-linejoin="miter" stroke="none" stroke-width="3.024" fill="#ffffff">
   <path d="M 225.238,119.255 L 212.81,119.255 L 209.998,105.951 L 222.093,105.951 L 221.609,103.743 L 209.514,103.743 L 205.493,84.815 L 203.164,84.815 L 210.966,121.432 L 225.721,121.432 Z" marker-start="none" marker-end="none"/>
   <path d="M 249.458,121.916 C 252.935,121.886 255.898,121.009 258.408,119.346 C 260.918,117.653 262.702,115.415 263.821,112.573 C 264.939,109.761 265.151,106.586 264.456,103.139 C 263.669,99.661 262.127,96.517 259.799,93.705 C 257.471,90.892 254.719,88.625 251.514,86.931 C 248.309,85.238 244.952,84.391 241.475,84.361 C 237.998,84.391 235.035,85.268 232.525,86.931 C 230.015,88.625 228.231,90.862 227.112,93.705 C 225.994,96.517 225.782,99.692 226.477,103.139 C 227.264,106.616 228.806,109.761 231.104,112.573 C 233.402,115.385 236.184,117.653 239.389,119.346 C 242.594,121.009 245.95,121.886 249.458,121.916 M 249.004,119.739 C 245.92,119.709 242.957,118.923 240.145,117.441 C 237.333,115.959 234.914,113.964 232.888,111.454 C 230.862,108.944 229.501,106.193 228.836,103.139 C 228.231,100.085 228.413,97.333 229.35,94.823 C 230.318,92.314 231.89,90.318 234.067,88.836 C 236.244,87.355 238.875,86.569 241.959,86.538 C 245.043,86.569 247.976,87.355 250.788,88.836 C 253.6,90.348 256.049,92.344 258.075,94.823 C 260.101,97.333 261.462,100.085 262.127,103.108 C 262.732,106.162 262.551,108.944 261.583,111.424 C 260.615,113.933 259.043,115.929 256.866,117.411 C 254.659,118.923 252.058,119.678 249.004,119.739"/>
   <path d="M 291.518,99.298 L 296.235,121.432 L 298.563,121.432 L 293.725,98.603 C 293.393,96.728 292.909,94.975 292.304,93.342 C 291.699,91.709 290.641,90.106 289.129,88.594 C 287.557,87.173 285.833,86.115 283.928,85.389 C 282.023,84.664 280.149,84.301 278.274,84.301 C 276.399,84.301 274.676,84.664 273.073,85.389 C 271.471,86.115 270.201,87.173 269.233,88.594 C 268.356,90.106 267.993,91.709 268.084,93.342 C 268.175,94.975 268.447,96.728 268.9,98.603 L 273.738,121.432 L 276.067,121.432 L 271.35,99.298 C 270.957,97.635 270.684,95.972 270.533,94.37 C 270.382,92.767 270.624,91.316 271.289,90.076 C 271.985,88.897 273.043,88.02 274.434,87.415 C 275.825,86.81 277.276,86.508 278.728,86.508 C 280.179,86.508 281.751,86.81 283.414,87.415 C 285.077,88.02 286.499,88.897 287.708,90.076 C 288.887,91.316 289.734,92.737 290.278,94.37 C 290.762,95.972 291.185,97.605 291.518,99.298"/>
   <path d="M 339.051,121.432 L 331.008,83.605 L 307.241,116.292 L 300.529,84.815 L 298.2,84.815 L 306.092,121.916 L 329.95,89.471 L 336.723,121.432 Z" marker-start="none" marker-end="none"/>
   <path d="M 339.142,84.875 L 346.913,121.493 L 353.505,121.493 C 356.165,121.523 358.524,121.221 360.61,120.586 C 362.666,119.951 364.511,118.711 366.114,116.866 C 367.656,115.052 368.653,112.966 369.137,110.607 C 369.621,108.249 369.591,105.769 369.016,103.108 C 368.472,100.568 367.474,98.149 366.053,95.851 C 364.602,93.553 362.787,91.497 360.55,89.713 C 358.161,87.808 355.742,86.508 353.353,85.843 C 350.965,85.147 348.425,84.845 345.734,84.875 L 339.142,84.875 Z M 341.954,87.083 L 346.187,87.083 C 348.576,87.052 350.844,87.355 353.021,87.99 C 355.168,88.625 357.314,89.804 359.401,91.497 C 361.306,93.07 362.878,94.854 364.118,96.849 C 365.388,98.845 366.234,100.962 366.718,103.139 C 367.202,105.497 367.232,107.704 366.779,109.791 C 366.325,111.877 365.388,113.722 364.027,115.324 C 362.606,116.866 361.003,117.925 359.189,118.499 C 357.375,119.074 355.319,119.346 353.051,119.316 L 348.818,119.316 L 341.954,87.083 Z" marker-start="none" marker-end="none"/>
   <path d="M 393.055,96.879 L 376.969,96.879 L 369.5,84.845 L 367.111,84.845 L 390.485,122.672 L 397.742,84.845 L 395.353,84.845 L 393.055,96.879 Z M 392.662,99.057 L 389.275,116.715 L 378.329,99.057 L 392.662,99.057 Z" marker-start="none" marker-end="none"/>
   <path d="M 413.495,119.255 L 406.178,84.815 L 403.85,84.815 L 411.167,119.255 L 401.703,119.255 L 402.156,121.432 L 423.413,121.432 L 422.96,119.255 Z" marker-start="none" marker-end="none"/>
   <path d="M 429.975,121.432 L 422.204,84.815 L 419.876,84.815 L 427.647,121.432 Z" marker-start="none" marker-end="none"/>
   <path d="M 454.8,121.916 C 458.277,121.886 461.24,121.009 463.75,119.346 C 466.26,117.653 468.044,115.415 469.162,112.573 C 470.281,109.761 470.493,106.586 469.797,103.139 C 469.011,99.661 467.469,96.517 465.141,93.705 C 462.813,90.892 460.061,88.625 456.856,86.931 C 453.651,85.238 450.294,84.391 446.817,84.361 C 443.34,84.391 440.376,85.268 437.867,86.931 C 435.357,88.625 433.573,90.862 432.454,93.705 C 431.336,96.517 431.124,99.692 431.819,103.139 C 432.605,106.616 434.148,109.761 436.446,112.573 C 438.744,115.385 441.495,117.653 444.731,119.346 C 447.936,121.009 451.292,121.886 454.8,121.916 M 454.316,119.739 C 451.232,119.709 448.268,118.923 445.456,117.441 C 442.644,115.959 440.225,113.964 438.199,111.454 C 436.174,108.944 434.813,106.193 434.148,103.139 C 433.543,100.085 433.724,97.333 434.662,94.823 C 435.629,92.314 437.202,90.318 439.379,88.836 C 441.556,87.355 444.186,86.569 447.271,86.538 C 450.355,86.569 453.288,87.355 456.1,88.836 C 458.912,90.348 461.361,92.344 463.387,94.823 C 465.413,97.333 466.774,100.085 467.439,103.108 C 468.044,106.162 467.862,108.944 466.895,111.424 C 465.927,113.933 464.355,115.929 462.178,117.411 C 460.001,118.923 457.37,119.678 454.316,119.739"/>
   <path d="M 512.341,121.432 L 504.328,83.605 L 480.532,116.292 L 473.849,84.815 L 471.521,84.815 L 479.383,121.916 L 503.24,89.471 L 510.013,121.432 Z" marker-start="none" marker-end="none"/>
   <path d="M 206.551,157.233 C 206.067,157.445 205.523,157.536 204.888,157.536 C 202.227,157.415 200.05,156.266 198.387,154.089 C 196.724,151.911 195.393,149.432 194.365,146.65 C 193.337,143.868 192.46,141.51 191.704,139.544 C 190.344,136.128 188.378,132.892 185.869,129.778 C 183.208,126.754 180.123,124.426 176.707,122.793 C 173.26,121.16 170.357,120.586 166.849,120.586 C 165.579,120.616 163.977,120.918 162.918,121.251 L 165.912,135.099 C 167.061,134.888 168.21,134.737 168.996,134.737 C 171.324,134.827 174.016,136.007 175.8,138.426 C 177.221,140.361 178.279,142.568 179.095,144.927 C 180.275,148.011 181.575,151.156 183.026,154.391 C 184.478,157.626 186.413,160.62 188.741,163.311 C 191.432,166.244 194.426,168.482 197.752,170.024 C 201.078,171.566 204.434,172.352 207.881,172.352 C 208.94,172.352 209.998,172.261 210.996,172.05 L 206.551,157.233 Z" marker-start="none" marker-end="none"/>
   <path d="M 98.241,84.966 L 83.787,84.966 L 94.461,135.069 L 108.884,135.069 Z" marker-start="none" marker-end="none"/>
   <path d="M 159.925,121.221 L 145.471,121.221 L 156.115,171.233 L 170.538,171.233 Z" marker-start="none" marker-end="none"/>
   <path d="M 125.273,84.966 L 110.819,84.966 L 118.53,121.221 L 109.429,121.221 L 112.362,135.069 L 145.018,135.069 L 142.085,121.221 L 132.983,121.221 Z" fill-rule="nonzero" marker-start="none" marker-end="none"/>
  </g>
 </g>
</svg>
